<svg width="400" height="400" viewBox="0 0 400 400" fill="none" xmlns="http://www.w3.org/2000/svg">
<g clip-path="url(#clip0_53_5)">
<rect width="400" height="400" rx="96" fill="white"/>
<path d="M273.416 209.429C260.845 221.999 248.274 234.569 235.702 247.141C219.989 262.854 204.275 278.568 188.562 294.281C204.275 309.995 219.989 325.708 235.702 341.422C251.416 325.708 267.13 309.995 282.844 294.281C287.348 289.777 291.853 285.273 296.356 280.769C306.36 270.765 311.978 257.2 311.978 243.056V156.945C311.978 142.8 306.36 129.235 296.356 119.232C291.853 114.728 287.348 110.224 282.844 105.718C267.13 90.0054 251.416 74.2924 235.702 58.5784C219.989 74.2924 204.275 90.0054 188.562 105.718C204.275 121.432 219.989 137.145 235.702 152.859C248.274 165.43 260.845 178.002 273.416 190.572C278.624 195.779 278.624 204.221 273.416 209.429Z" fill="black"/>
<path d="M94.2811 105.718C119.286 130.724 133.334 164.638 133.334 199.999C133.334 235.361 119.286 269.276 94.2811 294.281L141.422 341.422C178.928 303.915 200.002 253.044 200.002 200.001C200.002 146.958 178.929 96.0863 141.422 58.5784C125.708 74.2924 109.995 90.0054 94.2811 105.718Z" fill="black"/>
</g>
<defs>
<clipPath id="clip0_53_5">
<rect width="400" height="400" rx="96" fill="white"/>
</clipPath>
</defs>
</svg>
